<mxfile host="" modified="2021-01-19T10:00:14.027Z" agent="5.0 (Windows NT 6.2; Win64; x64) AppleWebKit/537.36 (KHTML, like Gecko) Chrome/81.0.4044.113 Safari/537.36" etag="ngNeziJFE4QPnU_Yc42v" version="13.7.9" type="embed"><diagram id="nksBYRpKuUvlGFji--ah" name="Page-1"><mxGraphModel dx="900" dy="423" grid="1" gridSize="10" guides="1" tooltips="1" connect="1" arrows="1" fold="1" page="1" pageScale="1" pageWidth="1390" pageHeight="980" math="0" shadow="0"><root><mxCell id="0"/><mxCell id="1" parent="0"/><mxCell id="GIA6n7qFe35cQlI2zI8d-11" value="" style="endArrow=none;dashed=1;html=1;entryX=0.5;entryY=1;entryDx=0;entryDy=0;" parent="1" target="GIA6n7qFe35cQlI2zI8d-1" edge="1"><mxGeometry width="50" height="50" relative="1" as="geometry"><mxPoint x="780.5" y="945" as="sourcePoint"/><mxPoint x="837.5" y="455" as="targetPoint"/></mxGeometry></mxCell><mxCell id="4-cfbnJq5te2XabxBiRp-78" value="Option" style="shape=umlFrame;whiteSpace=wrap;html=1;strokeColor=#000000;fillColor=#ffffff;fontSize=14;" parent="1" vertex="1"><mxGeometry x="410.5" y="99" width="260" height="156.5" as="geometry"/></mxCell><mxCell id="WD7RwW45TAz70TlwFMTZ-11" value="" style="endArrow=none;dashed=1;html=1;" parent="1" source="WD7RwW45TAz70TlwFMTZ-15" edge="1"><mxGeometry width="50" height="50" relative="1" as="geometry"><mxPoint x="538" y="837" as="sourcePoint"/><mxPoint x="533" y="59" as="targetPoint"/></mxGeometry></mxCell><mxCell id="WD7RwW45TAz70TlwFMTZ-18" value="" style="endArrow=classic;html=1;" parent="1" edge="1"><mxGeometry width="50" height="50" relative="1" as="geometry"><mxPoint x="80" y="335" as="sourcePoint"/><mxPoint x="220" y="335" as="targetPoint"/></mxGeometry></mxCell><mxCell id="WD7RwW45TAz70TlwFMTZ-21" value="declararPresencia(cartao)" style="text;html=1;strokeColor=none;fillColor=none;align=center;verticalAlign=middle;whiteSpace=wrap;rounded=0;fontStyle=1;fontSize=14;" parent="1" vertex="1"><mxGeometry x="60" y="309" width="165" height="20" as="geometry"/></mxCell><mxCell id="WD7RwW45TAz70TlwFMTZ-24" value="" style="endArrow=open;endFill=1;endSize=12;html=1;entryX=0;entryY=0.5;entryDx=0;entryDy=0;exitX=1;exitY=0.25;exitDx=0;exitDy=0;" parent="1" source="WD7RwW45TAz70TlwFMTZ-19" target="WD7RwW45TAz70TlwFMTZ-27" edge="1"><mxGeometry width="160" relative="1" as="geometry"><mxPoint x="341.5" y="311.79" as="sourcePoint"/><mxPoint x="579" y="311.79" as="targetPoint"/><Array as="points"><mxPoint x="310" y="313"/></Array></mxGeometry></mxCell><mxCell id="WD7RwW45TAz70TlwFMTZ-27" value="" style="rounded=0;whiteSpace=wrap;html=1;" parent="1" vertex="1"><mxGeometry x="518" y="292.5" width="30" height="40" as="geometry"/></mxCell><mxCell id="WD7RwW45TAz70TlwFMTZ-28" value="" style="endArrow=none;dashed=1;html=1;entryX=0.5;entryY=1;entryDx=0;entryDy=0;" parent="1" source="WD7RwW45TAz70TlwFMTZ-50" target="WD7RwW45TAz70TlwFMTZ-27" edge="1"><mxGeometry width="50" height="50" relative="1" as="geometry"><mxPoint x="538" y="837" as="sourcePoint"/><mxPoint x="533" y="-3" as="targetPoint"/></mxGeometry></mxCell><mxCell id="WD7RwW45TAz70TlwFMTZ-30" value="" style="endArrow=open;endFill=1;endSize=12;html=1;" parent="1" edge="1"><mxGeometry width="160" relative="1" as="geometry"><mxPoint x="560" y="460.30999999999995" as="sourcePoint"/><mxPoint x="250" y="460" as="targetPoint"/></mxGeometry></mxCell><mxCell id="WD7RwW45TAz70TlwFMTZ-32" value="" style="rounded=0;whiteSpace=wrap;html=1;" parent="1" vertex="1"><mxGeometry x="508" y="426" width="40" height="130" as="geometry"/></mxCell><mxCell id="WD7RwW45TAz70TlwFMTZ-33" value="mostrarSenha()" style="text;html=1;strokeColor=none;fillColor=none;align=center;verticalAlign=middle;whiteSpace=wrap;rounded=0;fontStyle=1;fontSize=14;" parent="1" vertex="1"><mxGeometry x="383" y="438" width="100" height="20" as="geometry"/></mxCell><mxCell id="WD7RwW45TAz70TlwFMTZ-34" value="" style="endArrow=open;endFill=1;endSize=12;html=1;exitX=0;exitY=0.25;exitDx=0;exitDy=0;" parent="1" source="GIA6n7qFe35cQlI2zI8d-4" edge="1"><mxGeometry width="160" relative="1" as="geometry"><mxPoint x="805" y="437.0000000000002" as="sourcePoint"/><mxPoint x="548" y="437" as="targetPoint"/></mxGeometry></mxCell><mxCell id="WD7RwW45TAz70TlwFMTZ-37" value="chamarCliente(cartao)" style="text;html=1;strokeColor=none;fillColor=none;align=center;verticalAlign=middle;whiteSpace=wrap;rounded=0;rotation=0;fontStyle=1;fontSize=14;" parent="1" vertex="1"><mxGeometry x="615" y="416" width="110" height="20" as="geometry"/></mxCell><mxCell id="WD7RwW45TAz70TlwFMTZ-39" value="" style="rounded=0;whiteSpace=wrap;html=1;" parent="1" vertex="1"><mxGeometry x="528" y="458" width="40" height="75" as="geometry"/></mxCell><mxCell id="WD7RwW45TAz70TlwFMTZ-48" value="terminarConsulta(cartao)" style="text;html=1;strokeColor=none;fillColor=none;align=center;verticalAlign=middle;whiteSpace=wrap;rounded=0;fontStyle=1;fontSize=14;" parent="1" vertex="1"><mxGeometry x="610" y="556" width="120" height="20" as="geometry"/></mxCell><mxCell id="WD7RwW45TAz70TlwFMTZ-50" value="" style="rounded=0;whiteSpace=wrap;html=1;" parent="1" vertex="1"><mxGeometry x="508" y="556" width="50" height="130" as="geometry"/></mxCell><mxCell id="WD7RwW45TAz70TlwFMTZ-51" value="" style="endArrow=none;dashed=1;html=1;entryX=0.5;entryY=1;entryDx=0;entryDy=0;" parent="1" target="WD7RwW45TAz70TlwFMTZ-50" edge="1"><mxGeometry width="50" height="50" relative="1" as="geometry"><mxPoint x="534.8484848484848" y="930" as="sourcePoint"/><mxPoint x="533" y="170" as="targetPoint"/></mxGeometry></mxCell><mxCell id="WD7RwW45TAz70TlwFMTZ-52" value="" style="rounded=0;whiteSpace=wrap;html=1;" parent="1" vertex="1"><mxGeometry x="488" y="564" width="40" height="60" as="geometry"/></mxCell><mxCell id="WD7RwW45TAz70TlwFMTZ-53" value="" style="rounded=0;whiteSpace=wrap;html=1;" parent="1" vertex="1"><mxGeometry x="538" y="616" width="40" height="60" as="geometry"/></mxCell><mxCell id="WD7RwW45TAz70TlwFMTZ-62" value="" style="endArrow=none;html=1;exitX=1;exitY=0.25;exitDx=0;exitDy=0;" parent="1" edge="1"><mxGeometry width="50" height="50" relative="1" as="geometry"><mxPoint x="487" y="579" as="sourcePoint"/><mxPoint x="447" y="578.75" as="targetPoint"/></mxGeometry></mxCell><mxCell id="WD7RwW45TAz70TlwFMTZ-63" value="" style="endArrow=none;html=1;" parent="1" edge="1"><mxGeometry width="50" height="50" relative="1" as="geometry"><mxPoint x="447" y="579" as="sourcePoint"/><mxPoint x="447" y="619" as="targetPoint"/></mxGeometry></mxCell><mxCell id="WD7RwW45TAz70TlwFMTZ-64" value="" style="endArrow=open;endFill=1;endSize=12;html=1;entryX=1;entryY=0.75;entryDx=0;entryDy=0;" parent="1" edge="1"><mxGeometry width="160" relative="1" as="geometry"><mxPoint x="447" y="619.25" as="sourcePoint"/><mxPoint x="487" y="618" as="targetPoint"/></mxGeometry></mxCell><mxCell id="WD7RwW45TAz70TlwFMTZ-65" value="fechar()" style="text;html=1;strokeColor=none;fillColor=none;align=center;verticalAlign=middle;whiteSpace=wrap;rounded=0;fontStyle=1;fontSize=14;" parent="1" vertex="1"><mxGeometry x="440" y="556" width="40" height="20" as="geometry"/></mxCell><mxCell id="WD7RwW45TAz70TlwFMTZ-66" value="" style="endArrow=open;endFill=1;endSize=12;html=1;" parent="1" edge="1"><mxGeometry width="160" relative="1" as="geometry"><mxPoint x="80" y="734" as="sourcePoint"/><mxPoint x="760" y="734" as="targetPoint"/></mxGeometry></mxCell><mxCell id="WD7RwW45TAz70TlwFMTZ-69" value="assistirConsulta(cartao)" style="text;html=1;strokeColor=none;fillColor=none;align=center;verticalAlign=middle;whiteSpace=wrap;rounded=0;fontStyle=1;fontSize=14;" parent="1" vertex="1"><mxGeometry x="615" y="707" width="120" height="20" as="geometry"/></mxCell><mxCell id="DfYYFf-2BSC2NgVYR4sn-27" value="" style="rounded=0;whiteSpace=wrap;html=1;" parent="1" vertex="1"><mxGeometry x="493" y="787" width="76" height="110" as="geometry"/></mxCell><mxCell id="WD7RwW45TAz70TlwFMTZ-16" value="marcarConsulta()" style="text;html=1;strokeColor=none;fillColor=none;align=center;verticalAlign=middle;whiteSpace=wrap;rounded=0;fontStyle=1;fontSize=14;" parent="1" vertex="1"><mxGeometry x="140" y="192" width="120" height="20" as="geometry"/></mxCell><mxCell id="WD7RwW45TAz70TlwFMTZ-15" value="" style="rounded=0;whiteSpace=wrap;html=1;" parent="1" vertex="1"><mxGeometry x="518" y="129" width="30" height="120" as="geometry"/></mxCell><mxCell id="DfYYFf-2BSC2NgVYR4sn-49" value="" style="endArrow=none;dashed=1;html=1;entryX=0.5;entryY=1;entryDx=0;entryDy=0;" parent="1" source="WD7RwW45TAz70TlwFMTZ-27" target="WD7RwW45TAz70TlwFMTZ-15" edge="1"><mxGeometry width="50" height="50" relative="1" as="geometry"><mxPoint x="533" y="266" as="sourcePoint"/><mxPoint x="533" y="-3" as="targetPoint"/></mxGeometry></mxCell><mxCell id="DfYYFf-2BSC2NgVYR4sn-61" value="" style="endArrow=open;endFill=1;endSize=12;html=1;exitX=0;exitY=0.5;exitDx=0;exitDy=0;" parent="1" source="GIA6n7qFe35cQlI2zI8d-5" edge="1"><mxGeometry width="160" relative="1" as="geometry"><mxPoint x="860" y="572.0320000000002" as="sourcePoint"/><mxPoint x="559" y="574" as="targetPoint"/></mxGeometry></mxCell><mxCell id="DfYYFf-2BSC2NgVYR4sn-78" value="" style="endArrow=open;endFill=1;endSize=12;html=1;" parent="1" edge="1"><mxGeometry width="160" relative="1" as="geometry"><mxPoint x="760" y="825" as="sourcePoint"/><mxPoint x="570" y="825" as="targetPoint"/></mxGeometry></mxCell><mxCell id="DfYYFf-2BSC2NgVYR4sn-79" value="" style="endArrow=open;endFill=1;endSize=12;html=1;exitX=0;exitY=0.75;exitDx=0;exitDy=0;" parent="1" source="GIA6n7qFe35cQlI2zI8d-3" edge="1"><mxGeometry width="160" relative="1" as="geometry"><mxPoint x="805" y="865" as="sourcePoint"/><mxPoint x="570" y="865" as="targetPoint"/></mxGeometry></mxCell><mxCell id="DfYYFf-2BSC2NgVYR4sn-80" value="desmarcarconsulta(medico)" style="text;html=1;strokeColor=none;fillColor=none;align=center;verticalAlign=middle;whiteSpace=wrap;rounded=0;fontStyle=1;fontSize=14;" parent="1" vertex="1"><mxGeometry x="578" y="799.5" width="170" height="20" as="geometry"/></mxCell><mxCell id="DfYYFf-2BSC2NgVYR4sn-82" value="" style="endArrow=open;endFill=1;endSize=12;html=1;entryX=1;entryY=0;entryDx=0;entryDy=0;" parent="1" target="DfYYFf-2BSC2NgVYR4sn-94" edge="1"><mxGeometry width="160" relative="1" as="geometry"><mxPoint x="80" y="811" as="sourcePoint"/><mxPoint x="545" y="810" as="targetPoint"/></mxGeometry></mxCell><mxCell id="DfYYFf-2BSC2NgVYR4sn-87" value="desmarcarConsulta(utente)" style="text;html=1;strokeColor=none;fillColor=none;align=center;verticalAlign=middle;whiteSpace=wrap;rounded=0;fontStyle=1;fontSize=14;" parent="1" vertex="1"><mxGeometry x="145" y="787" width="127.5" height="20" as="geometry"/></mxCell><mxCell id="DfYYFf-2BSC2NgVYR4sn-88" value="" style="rounded=0;whiteSpace=wrap;html=1;strokeColor=#000000;fillColor=#ffffff;" parent="1" vertex="1"><mxGeometry x="468" y="831" width="50" height="60" as="geometry"/></mxCell><mxCell id="DfYYFf-2BSC2NgVYR4sn-89" value="registrarSaida(cartao)" style="text;html=1;strokeColor=none;fillColor=none;align=center;verticalAlign=middle;whiteSpace=wrap;rounded=0;rotation=0;fontStyle=1;fontSize=14;" parent="1" vertex="1"><mxGeometry x="585" y="454" width="120" height="20" as="geometry"/></mxCell><mxCell id="DfYYFf-2BSC2NgVYR4sn-91" value="" style="endArrow=none;html=1;exitX=1;exitY=0.25;exitDx=0;exitDy=0;" parent="1" edge="1"><mxGeometry width="50" height="50" relative="1" as="geometry"><mxPoint x="467" y="840" as="sourcePoint"/><mxPoint x="427" y="839.75" as="targetPoint"/></mxGeometry></mxCell><mxCell id="DfYYFf-2BSC2NgVYR4sn-92" value="" style="endArrow=none;html=1;" parent="1" edge="1"><mxGeometry width="50" height="50" relative="1" as="geometry"><mxPoint x="427" y="840" as="sourcePoint"/><mxPoint x="427" y="880" as="targetPoint"/></mxGeometry></mxCell><mxCell id="DfYYFf-2BSC2NgVYR4sn-93" value="" style="endArrow=open;endFill=1;endSize=12;html=1;entryX=1;entryY=0.75;entryDx=0;entryDy=0;" parent="1" edge="1"><mxGeometry width="160" relative="1" as="geometry"><mxPoint x="427" y="880.25" as="sourcePoint"/><mxPoint x="467" y="879" as="targetPoint"/></mxGeometry></mxCell><mxCell id="DfYYFf-2BSC2NgVYR4sn-94" value="registrarDesmarcaçao(reason)" style="text;html=1;strokeColor=none;fillColor=none;align=center;verticalAlign=middle;whiteSpace=wrap;rounded=0;fontStyle=1;fontSize=14;" parent="1" vertex="1"><mxGeometry x="363" y="811" width="130" height="20" as="geometry"/></mxCell><mxCell id="DfYYFf-2BSC2NgVYR4sn-100" value="" style="endArrow=none;dashed=1;html=1;entryX=0.5;entryY=1;entryDx=0;entryDy=0;" parent="1" edge="1"><mxGeometry width="50" height="50" relative="1" as="geometry"><mxPoint x="246" y="489" as="sourcePoint"/><mxPoint x="246" y="60" as="targetPoint"/></mxGeometry></mxCell><mxCell id="WD7RwW45TAz70TlwFMTZ-19" value="" style="rounded=0;whiteSpace=wrap;html=1;" parent="1" vertex="1"><mxGeometry x="227.5" y="309" width="45" height="67" as="geometry"/></mxCell><mxCell id="4-cfbnJq5te2XabxBiRp-3" value="registrarSaida(cartao)" style="text;html=1;strokeColor=none;fillColor=none;align=center;verticalAlign=middle;whiteSpace=wrap;rounded=0;rotation=0;fontStyle=1;fontSize=14;" parent="1" vertex="1"><mxGeometry x="585" y="592" width="120" height="20" as="geometry"/></mxCell><mxCell id="4-cfbnJq5te2XabxBiRp-5" value="S: Sistema" style="text;html=1;align=center;verticalAlign=middle;whiteSpace=wrap;rounded=0;fontStyle=5;fillColor=#ffffff;strokeColor=#000000;fontSize=15;" parent="1" vertex="1"><mxGeometry x="471" y="22" width="120" height="41" as="geometry"/></mxCell><mxCell id="4-cfbnJq5te2XabxBiRp-6" value="B:Balcao" style="text;html=1;align=center;verticalAlign=middle;whiteSpace=wrap;rounded=0;fontStyle=5;fillColor=#ffffff;strokeColor=#000000;fontSize=15;" parent="1" vertex="1"><mxGeometry x="190" y="22" width="120" height="41" as="geometry"/></mxCell><mxCell id="4-cfbnJq5te2XabxBiRp-7" value="U: Utente" style="text;html=1;align=center;verticalAlign=middle;whiteSpace=wrap;rounded=0;fontStyle=5;fillColor=#ffffff;strokeColor=#000000;fontSize=15;" parent="1" vertex="1"><mxGeometry x="40" y="102" width="100" height="28" as="geometry"/></mxCell><mxCell id="4-cfbnJq5te2XabxBiRp-28" value="&lt;b&gt;Senha&lt;/b&gt;" style="html=1;verticalAlign=bottom;endArrow=open;dashed=1;endSize=8;fontSize=14;" parent="1" edge="1"><mxGeometry x="-0.0444" relative="1" as="geometry"><mxPoint x="220" y="365" as="sourcePoint"/><mxPoint x="81" y="365" as="targetPoint"/><mxPoint as="offset"/></mxGeometry></mxCell><mxCell id="4-cfbnJq5te2XabxBiRp-56" value="remarcarConsulta" style="text;html=1;strokeColor=none;fillColor=none;align=center;verticalAlign=middle;whiteSpace=wrap;rounded=0;fontSize=14;fontStyle=1" parent="1" vertex="1"><mxGeometry x="488" y="749" width="110" height="20" as="geometry"/></mxCell><mxCell id="4-cfbnJq5te2XabxBiRp-59" value="marcarConsulta(consulta)" style="text;html=1;strokeColor=none;fillColor=none;align=center;verticalAlign=middle;whiteSpace=wrap;rounded=0;fontStyle=1;fontSize=14;rotation=-90;" parent="1" vertex="1"><mxGeometry x="227.5" y="556" width="200" height="20" as="geometry"/></mxCell><mxCell id="WD7RwW45TAz70TlwFMTZ-25" value="registrarChegada(cartao, horaChegada)" style="text;html=1;strokeColor=none;fillColor=none;align=center;verticalAlign=middle;whiteSpace=wrap;rounded=0;fontStyle=1;fontSize=14;" parent="1" vertex="1"><mxGeometry x="349" y="285" width="161" height="20" as="geometry"/></mxCell><mxCell id="4-cfbnJq5te2XabxBiRp-65" value="" style="ellipse;html=1;shape=endState;fillColor=#000000;strokeColor=#ff0000;fontSize=14;" parent="1" vertex="1"><mxGeometry x="473" y="641" width="30" height="30" as="geometry"/></mxCell><mxCell id="4-cfbnJq5te2XabxBiRp-80" value="vagaDisponivel" style="text;html=1;strokeColor=none;fillColor=none;align=center;verticalAlign=middle;whiteSpace=wrap;rounded=0;fontSize=14;" parent="1" vertex="1"><mxGeometry x="450" y="107" width="150" height="20" as="geometry"/></mxCell><mxCell id="4-cfbnJq5te2XabxBiRp-88" value="&lt;b&gt;[naoHaVagasDisponiveis]&lt;/b&gt;" style="text;html=1;strokeColor=none;fillColor=none;align=center;verticalAlign=middle;whiteSpace=wrap;rounded=0;fontSize=14;" parent="1" vertex="1"><mxGeometry x="270" y="130" width="170" height="20" as="geometry"/></mxCell><mxCell id="WD7RwW45TAz70TlwFMTZ-2" value="" style="shape=umlActor;verticalLabelPosition=bottom;verticalAlign=top;html=1;outlineConnect=0;" parent="1" vertex="1"><mxGeometry x="50" y="141" width="45" height="71" as="geometry"/></mxCell><mxCell id="4-cfbnJq5te2XabxBiRp-112" value="" style="endArrow=none;dashed=1;html=1;" parent="1" edge="1"><mxGeometry width="50" height="50" relative="1" as="geometry"><mxPoint x="78" y="912" as="sourcePoint"/><mxPoint x="78" y="202" as="targetPoint"/></mxGeometry></mxCell><mxCell id="r6B9vIsK7ALmx9C5HrUD-1" value="" style="rounded=0;whiteSpace=wrap;html=1;" parent="1" vertex="1"><mxGeometry x="538" y="179" width="40" height="60" as="geometry"/></mxCell><mxCell id="r6B9vIsK7ALmx9C5HrUD-3" value="" style="endArrow=open;endFill=1;endSize=12;html=1;entryX=0;entryY=0.667;entryDx=0;entryDy=0;entryPerimeter=0;" parent="1" target="WD7RwW45TAz70TlwFMTZ-15" edge="1"><mxGeometry width="160" relative="1" as="geometry"><mxPoint x="80" y="212" as="sourcePoint"/><mxPoint x="492" y="192.35856573705178" as="targetPoint"/></mxGeometry></mxCell><mxCell id="r6B9vIsK7ALmx9C5HrUD-4" value="" style="endArrow=open;endFill=1;endSize=12;html=1;exitX=0.067;exitY=-0.011;exitDx=0;exitDy=0;exitPerimeter=0;" parent="1" source="4-cfbnJq5te2XabxBiRp-55" edge="1"><mxGeometry width="160" relative="1" as="geometry"><mxPoint x="342" y="740" as="sourcePoint"/><mxPoint x="408" y="159" as="targetPoint"/><Array as="points"><mxPoint x="342" y="159"/></Array></mxGeometry></mxCell><mxCell id="r6B9vIsK7ALmx9C5HrUD-6" value="" style="endArrow=open;endFill=1;endSize=12;html=1;entryX=1.027;entryY=0.826;entryDx=0;entryDy=0;entryPerimeter=0;" parent="1" target="r6B9vIsK7ALmx9C5HrUD-1" edge="1"><mxGeometry width="160" relative="1" as="geometry"><mxPoint x="578" y="189" as="sourcePoint"/><mxPoint x="708" y="189" as="targetPoint"/><Array as="points"><mxPoint x="608" y="189"/><mxPoint x="608" y="229"/></Array></mxGeometry></mxCell><mxCell id="r6B9vIsK7ALmx9C5HrUD-7" value="marcarConsulta()" style="text;html=1;strokeColor=none;fillColor=none;align=center;verticalAlign=middle;whiteSpace=wrap;rounded=0;fontStyle=1;fontSize=14;" parent="1" vertex="1"><mxGeometry x="578" y="169" width="120" height="20" as="geometry"/></mxCell><mxCell id="r6B9vIsK7ALmx9C5HrUD-8" value="" style="endArrow=open;endFill=1;endSize=12;html=1;entryX=1.001;entryY=0.831;entryDx=0;entryDy=0;entryPerimeter=0;" parent="1" target="WD7RwW45TAz70TlwFMTZ-39" edge="1"><mxGeometry width="160" relative="1" as="geometry"><mxPoint x="568" y="479" as="sourcePoint"/><mxPoint x="728" y="479" as="targetPoint"/><Array as="points"><mxPoint x="598" y="479"/><mxPoint x="598" y="520"/></Array></mxGeometry></mxCell><mxCell id="r6B9vIsK7ALmx9C5HrUD-9" value="" style="endArrow=classic;html=1;entryX=0;entryY=0.25;entryDx=0;entryDy=0;" parent="1" target="r6B9vIsK7ALmx9C5HrUD-12" edge="1"><mxGeometry width="50" height="50" relative="1" as="geometry"><mxPoint x="81" y="392" as="sourcePoint"/><mxPoint x="570" y="392" as="targetPoint"/></mxGeometry></mxCell><mxCell id="r6B9vIsK7ALmx9C5HrUD-10" value="declararPresencia(cartao)" style="text;html=1;strokeColor=none;fillColor=none;align=center;verticalAlign=middle;whiteSpace=wrap;rounded=0;fontStyle=1;fontSize=14;" parent="1" vertex="1"><mxGeometry x="343" y="365" width="165" height="20" as="geometry"/></mxCell><mxCell id="r6B9vIsK7ALmx9C5HrUD-11" value="&lt;b&gt;Senha&lt;/b&gt;" style="html=1;verticalAlign=bottom;endArrow=open;dashed=1;endSize=8;fontSize=14;exitX=0;exitY=0.75;exitDx=0;exitDy=0;" parent="1" source="r6B9vIsK7ALmx9C5HrUD-12" edge="1"><mxGeometry x="0.6372" y="34" relative="1" as="geometry"><mxPoint x="585" y="411.31000000000006" as="sourcePoint"/><mxPoint x="80" y="412" as="targetPoint"/><mxPoint as="offset"/></mxGeometry></mxCell><mxCell id="r6B9vIsK7ALmx9C5HrUD-12" value="" style="rounded=0;whiteSpace=wrap;html=1;" parent="1" vertex="1"><mxGeometry x="518.5" y="376" width="30" height="40" as="geometry"/></mxCell><mxCell id="GIA6n7qFe35cQlI2zI8d-1" value="M:Medico" style="text;html=1;align=center;verticalAlign=middle;whiteSpace=wrap;rounded=0;fontStyle=5;fillColor=#ffffff;strokeColor=#000000;fontSize=15;" parent="1" vertex="1"><mxGeometry x="720" y="365" width="120" height="41" as="geometry"/></mxCell><mxCell id="GIA6n7qFe35cQlI2zI8d-4" value="" style="rounded=0;whiteSpace=wrap;html=1;" parent="1" vertex="1"><mxGeometry x="762.5" y="422" width="35" height="60" as="geometry"/></mxCell><mxCell id="GIA6n7qFe35cQlI2zI8d-5" value="" style="rounded=0;whiteSpace=wrap;html=1;" parent="1" vertex="1"><mxGeometry x="762.5" y="544" width="35" height="60" as="geometry"/></mxCell><mxCell id="GIA6n7qFe35cQlI2zI8d-7" value="" style="rounded=0;whiteSpace=wrap;html=1;" parent="1" vertex="1"><mxGeometry x="762.5" y="698" width="35" height="82" as="geometry"/></mxCell><mxCell id="GIA6n7qFe35cQlI2zI8d-3" value="" style="rounded=0;whiteSpace=wrap;html=1;" parent="1" vertex="1"><mxGeometry x="762.5" y="799.5" width="35" height="85" as="geometry"/></mxCell><mxCell id="DfYYFf-2BSC2NgVYR4sn-81" value="desmarcarConsulta(naoCompadencia)" style="text;html=1;strokeColor=none;fillColor=none;align=center;verticalAlign=middle;whiteSpace=wrap;rounded=0;fontStyle=1;fontSize=14;" parent="1" vertex="1"><mxGeometry x="625" y="865" width="150" height="42" as="geometry"/></mxCell><mxCell id="GIA6n7qFe35cQlI2zI8d-12" value="chamarCliente(cartao)" style="text;html=1;strokeColor=none;fillColor=none;align=center;verticalAlign=middle;whiteSpace=wrap;rounded=0;fontStyle=1;fontSize=14;" parent="1" vertex="1"><mxGeometry x="826" y="418" width="110" height="20" as="geometry"/></mxCell><mxCell id="GIA6n7qFe35cQlI2zI8d-15" value="terminarConsulta(cartao)" style="text;html=1;strokeColor=none;fillColor=none;align=center;verticalAlign=middle;whiteSpace=wrap;rounded=0;fontStyle=1;fontSize=14;" parent="1" vertex="1"><mxGeometry x="826" y="545" width="79" height="20" as="geometry"/></mxCell><mxCell id="GIA6n7qFe35cQlI2zI8d-24" value="" style="endArrow=open;endFill=1;endSize=12;html=1;exitX=1;exitY=0.5;exitDx=0;exitDy=0;entryX=1;entryY=0.5;entryDx=0;entryDy=0;" parent="1" edge="1"><mxGeometry width="160" relative="1" as="geometry"><mxPoint x="797.4999999999995" y="738" as="sourcePoint"/><mxPoint x="797.4999999999995" y="573" as="targetPoint"/><Array as="points"><mxPoint x="938" y="738"/><mxPoint x="937.5" y="573"/></Array></mxGeometry></mxCell><mxCell id="GIA6n7qFe35cQlI2zI8d-25" value="" style="endArrow=open;endFill=1;endSize=12;html=1;entryX=1.069;entryY=0.383;entryDx=0;entryDy=0;entryPerimeter=0;" parent="1" target="GIA6n7qFe35cQlI2zI8d-4" edge="1"><mxGeometry width="160" relative="1" as="geometry"><mxPoint x="800" y="707" as="sourcePoint"/><mxPoint x="1000" y="707" as="targetPoint"/><Array as="points"><mxPoint x="897.5" y="707"/><mxPoint x="897.5" y="445"/></Array></mxGeometry></mxCell><mxCell id="4-cfbnJq5te2XabxBiRp-55" value="Option" style="shape=umlFrame;whiteSpace=wrap;html=1;strokeColor=#000000;fillColor=#ffffff;fontSize=14;" parent="1" vertex="1"><mxGeometry x="320" y="749" width="368" height="168" as="geometry"/></mxCell></root></mxGraphModel></diagram></mxfile>